<?xml version="1.0" standalone="no"?>
<!DOCTYPE svg PUBLIC "-//W3C//DTD SVG 20010904//EN"
 "http://www.w3.org/TR/2001/REC-SVG-20010904/DTD/svg10.dtd">
<svg version="1.0" xmlns="http://www.w3.org/2000/svg"
 width="500.000000pt" height="500.000000pt" viewBox="0 0 500.000000 500.000000"
 preserveAspectRatio="xMidYMid meet">

<g transform="translate(0.000000,500.000000) scale(0.100000,-0.100000)"
fill="#000000" stroke="none">
<path d="M2437 3901 c-21 -73 -20 -71 -2 -71 8 0 15 7 15 15 0 9 9 15 25 15
16 0 25 -6 25 -15 0 -8 7 -15 15 -15 19 0 18 12 -4 75 -12 35 -24 51 -38 53
-16 2 -22 -7 -36 -57z m52 -8 c1 -7 -6 -13 -14 -13 -16 0 -19 17 -8 46 6 16 7
16 14 -2 4 -10 8 -25 8 -31z"/>
<path d="M2616 3928 c-3 -18 -7 -49 -8 -68 l-3 -35 45 0 c42 0 45 2 48 28 2
17 -1 27 -9 27 -10 0 -10 3 -1 12 19 19 14 46 -10 53 -13 4 -31 9 -40 11 -13
4 -18 -3 -22 -28z m58 -19 c-8 -14 -34 -11 -34 4 0 8 3 17 7 20 9 9 34 -13 27
-24z m-4 -49 c0 -13 -7 -20 -20 -20 -13 0 -20 7 -20 20 0 13 7 20 20 20 13 0
20 -7 20 -20z"/>
<path d="M2254 3943 c-7 -2 -7 -24 0 -69 9 -59 11 -65 30 -60 12 3 31 6 44 6
12 0 22 5 22 10 0 6 -14 10 -30 10 -32 0 -33 1 -47 66 -4 23 -13 39 -19 37z"/>
<path d="M2810 3920 c0 -5 5 -10 11 -12 7 -2 7 -18 -2 -51 -8 -34 -16 -47 -25
-43 -8 3 -14 1 -14 -4 0 -11 71 -32 79 -23 3 3 0 8 -6 10 -16 6 -16 30 -2 71
7 20 15 29 25 25 8 -3 14 -1 14 5 0 5 -18 14 -40 20 -22 5 -40 6 -40 2z"/>
<path d="M2975 3816 c-14 -31 -25 -61 -25 -65 0 -5 14 -14 31 -20 39 -14 49
-14 49 -1 0 6 -6 10 -12 10 -35 1 -39 16 -18 65 14 33 17 52 11 58 -7 7 -19
-8 -36 -47z"/>
<path d="M1946 3851 c-3 -5 4 -30 15 -56 14 -32 18 -50 11 -57 -15 -15 -29 -2
-53 45 -26 51 -25 50 -38 42 -14 -8 33 -104 55 -112 8 -3 26 -1 40 5 30 14 32
48 4 102 -21 42 -25 46 -34 31z"/>
<path d="M3137 3734 l-35 -58 36 -22 c43 -26 58 -21 23 7 l-23 19 27 46 c18
30 24 49 17 56 -6 6 -22 -11 -45 -48z"/>
<path d="M1750 3753 c-14 -9 -27 -18 -29 -19 -3 -2 52 -99 64 -112 6 -7 74 41
69 49 -3 5 -15 2 -28 -6 -21 -14 -25 -14 -36 0 -10 12 -8 18 11 36 23 20 18
21 -25 3 -22 -9 -28 25 -6 38 20 13 27 28 12 28 -4 0 -19 -8 -32 -17z"/>
<path d="M3287 3631 l-36 -50 31 -26 c34 -29 51 -26 23 5 -10 11 -15 26 -11
36 6 15 8 15 31 0 28 -18 33 -11 11 13 -10 11 -12 22 -6 30 7 12 12 12 34 -3
14 -9 26 -12 26 -7 0 10 -48 51 -59 51 -4 0 -23 -22 -44 -49z"/>
<path d="M1596 3639 c-28 -22 -35 -42 -12 -33 20 8 68 -54 60 -78 -5 -17 -3
-18 13 -10 10 6 27 20 38 32 20 23 20 23 0 16 -15 -4 -27 3 -48 28 -15 20 -24
41 -21 50 8 21 2 20 -30 -5z"/>
<path d="M1474 3529 c-4 -7 0 -17 9 -24 10 -7 17 -17 17 -23 0 -20 -21 -24
-40 -7 -13 11 -20 13 -25 5 -8 -13 16 -42 57 -72 35 -24 61 -13 27 12 -20 16
-21 20 -10 34 13 15 16 15 36 -4 25 -24 46 -10 24 16 -30 36 -88 74 -95 63z"/>
<path d="M1338 3357 c-26 -40 -29 -76 -4 -41 12 16 16 15 58 -14 41 -28 58
-32 58 -11 0 4 -20 20 -44 35 -36 23 -43 31 -35 45 19 37 -8 25 -33 -14z"/>
<path d="M1239 3195 c-13 -24 -20 -48 -15 -52 4 -4 12 0 17 10 9 16 13 15 59
-8 32 -16 51 -21 55 -14 8 13 10 12 -43 38 -34 17 -43 27 -39 42 10 37 -11 28
-34 -16z"/>
<path d="M1166 3015 c-3 -10 12 -28 48 -55 58 -44 66 -47 66 -25 0 8 -4 15
-10 15 -22 0 -9 41 15 50 46 17 27 30 -44 30 -52 0 -70 -4 -75 -15z m84 -19
c0 -24 -14 -26 -40 -5 l-25 19 33 0 c21 0 32 -5 32 -14z"/>
<path d="M2501 2488 c-51 -238 -95 -441 -97 -450 -4 -12 0 -18 10 -18 8 0 17
12 20 28 3 15 46 214 95 441 50 228 87 419 85 423 -3 4 -8 8 -13 8 -4 0 -49
-195 -100 -432z"/>
<path d="M1122 2864 c2 -15 14 -18 66 -20 77 -2 90 12 20 21 -29 3 -61 9 -71
12 -14 4 -18 0 -15 -13z"/>
<path d="M3795 2844 c-12 -19 -20 -23 -28 -15 -16 16 -54 13 -61 -5 -10 -25
-7 -29 7 -10 17 24 51 17 55 -11 4 -26 -35 -43 -49 -22 -7 11 -9 10 -9 -5 0
-16 5 -17 37 -11 21 4 51 13 68 21 l30 14 -32 -6 c-39 -7 -43 9 -11 43 12 13
19 25 16 28 -3 3 -13 -6 -23 -21z"/>
<path d="M1180 2825 c24 -14 24 -14 -23 -15 -63 0 -58 -19 9 -37 59 -15 74
-16 74 -4 0 5 -21 13 -47 19 l-48 10 38 1 c40 1 48 14 18 31 -30 16 -49 11
-21 -5z"/>
<path d="M2120 2595 l-125 -125 126 -126 c82 -82 131 -124 139 -119 8 5 -27
46 -106 126 l-119 119 118 118 c102 102 124 132 98 132 -4 0 -62 -56 -131
-125z"/>
<path d="M2756 2713 c-4 -4 46 -60 111 -125 l118 -118 -119 -119 c-79 -80
-114 -121 -106 -126 8 -5 57 37 139 119 l126 126 -125 125 c-69 69 -127 125
-131 125 -3 0 -9 -3 -13 -7z"/>
<path d="M3770 2669 c-29 -7 -26 -7 19 -4 34 3 60 0 69 -8 12 -10 14 -9 10 3
-5 17 -48 21 -98 9z"/>
<path d="M3862 2624 c-5 -10 -28 -18 -56 -21 -25 -3 -49 -9 -51 -13 -3 -5 3
-7 12 -5 10 2 35 7 55 10 23 3 42 14 48 25 13 24 5 27 -8 4z"/>
<path d="M3880 2470 c0 -29 -1 -29 -62 -33 l-63 -3 68 -2 67 -2 0 35 c0 19 -2
35 -5 35 -3 0 -5 -13 -5 -30z"/>
<path d="M3757 2323 c-4 -3 -7 -13 -7 -22 0 -12 3 -11 13 3 18 24 50 17 58
-14 6 -21 7 -22 8 -4 1 11 -4 25 -11 32 -13 13 -50 16 -61 5z"/>
<path d="M3740 2271 c0 -9 17 -14 95 -26 29 -4 36 -3 25 4 -8 6 -30 11 -48 11
-18 0 -42 5 -53 10 -11 7 -19 7 -19 1z"/>
<path d="M3721 2141 c-24 -45 -15 -52 94 -77 18 -4 17 -3 -2 7 -15 8 -23 23
-25 48 -3 31 -7 36 -30 39 -18 2 -30 -3 -37 -17z m57 -23 c3 -22 -1 -28 -15
-28 -31 0 -46 16 -38 39 10 33 49 24 53 -11z"/>
<path d="M3660 1971 c-14 -26 -3 -49 31 -66 60 -31 115 -4 89 45 -23 42 -101
56 -120 21z m84 -2 c31 -15 41 -38 22 -57 -29 -30 -115 14 -100 52 7 19 42 21
78 5z"/>
<path d="M1384 1957 c4 -14 -5 -22 -41 -38 -26 -11 -52 -18 -59 -15 -10 4 -10
-2 -2 -25 5 -16 12 -29 15 -29 3 0 3 7 -1 15 -8 21 93 73 105 53 5 -7 9 -8 8
-3 0 6 -7 21 -15 35 -8 14 -13 17 -10 7z"/>
<path d="M1400 1785 c-30 -19 -52 -35 -47 -35 4 0 25 11 47 25 22 14 42 25 46
25 3 0 -10 -22 -30 -49 -55 -74 -45 -81 37 -26 60 40 57 48 -4 9 -23 -14 -43
-24 -45 -22 -2 3 10 23 27 46 17 23 29 47 27 52 -2 6 -28 -5 -58 -25z"/>
<path d="M3570 1797 c0 -7 98 -67 108 -67 4 0 15 14 24 30 9 17 14 30 9 30 -4
0 -13 -12 -19 -26 l-12 -25 -55 31 c-30 17 -55 29 -55 27z"/>
<path d="M3490 1681 l-20 -30 52 -40 c29 -22 53 -39 53 -38 0 1 11 16 25 32
l25 30 -28 -24 c-26 -23 -28 -24 -45 -8 -14 15 -15 20 -3 40 14 22 14 22 -8 3
-20 -18 -23 -18 -37 -4 -15 14 -14 18 1 42 24 36 11 33 -15 -3z"/>
<path d="M1551 1672 c13 -21 11 -25 -31 -62 -56 -49 -47 -53 10 -5 41 35 43
35 63 18 20 -17 20 -17 -1 13 -11 17 -29 37 -38 45 -16 13 -16 12 -3 -9z"/>
<path d="M3410 1577 c0 -4 9 -25 20 -47 29 -58 25 -64 -25 -35 -25 15 -50 25
-56 23 -6 -2 17 -17 50 -33 33 -16 63 -26 67 -23 3 3 -8 32 -25 64 -16 33 -30
55 -31 51z"/>
<path d="M1710 1550 c8 -5 20 -10 25 -10 6 0 3 5 -5 10 -8 5 -19 10 -25 10 -5
0 -3 -5 5 -10z"/>
<path d="M1623 1501 l-42 -48 32 -23 32 -23 -22 24 c-19 21 -20 26 -8 43 12
16 17 17 30 6 8 -7 18 -11 20 -8 3 3 -1 11 -10 18 -14 12 -14 15 1 32 17 18
18 18 43 -4 l26 -23 -24 28 c-14 15 -27 27 -30 27 -3 -1 -25 -23 -48 -49z"/>
<path d="M3248 1447 l-27 -22 36 -47 c19 -27 40 -48 46 -48 7 0 23 10 37 21
l25 21 -28 -17 c-27 -16 -30 -16 -49 1 -20 18 -20 19 2 36 12 10 18 18 13 18
-5 0 -14 -5 -21 -12 -9 -9 -16 -8 -29 5 -16 16 -15 18 7 42 29 31 24 32 -12 2z"/>
<path d="M1750 1398 c-25 -41 -25 -53 0 -78 26 -26 44 -25 59 4 14 25 8 46
-12 46 -8 0 -8 -3 2 -9 10 -7 11 -13 2 -30 -14 -25 -24 -26 -45 -5 -21 21 -20
36 5 68 24 30 63 34 78 9 6 -10 11 -13 11 -7 0 18 -23 34 -52 34 -21 0 -33 -8
-48 -32z"/>
<path d="M1910 1300 c-17 -33 -28 -60 -25 -60 2 0 16 23 30 50 26 52 43 61 65
35 16 -19 -5 -49 -29 -42 -13 3 -15 -3 -11 -37 4 -38 5 -38 8 -10 2 22 11 35
28 42 28 14 31 33 7 54 -37 32 -42 30 -73 -32z"/>
<path d="M3088 1349 c-17 -9 -16 -14 12 -70 28 -54 32 -58 51 -49 36 20 44 54
22 92 -20 35 -54 46 -85 27z m64 -16 c8 -10 18 -26 21 -36 8 -22 -8 -57 -26
-57 -17 0 -62 84 -53 99 11 17 41 13 58 -6z"/>
<path d="M2973 1280 c0 -25 2 -35 4 -22 2 12 2 32 0 45 -2 12 -4 2 -4 -23z"/>
<path d="M2077 1230 c-39 -52 -47 -71 -22 -50 22 18 63 4 68 -23 2 -12 5 11 6
51 0 39 -3 72 -7 72 -4 0 -24 -22 -45 -50z m43 -5 c0 -36 -5 -41 -29 -26 -12
8 -12 13 3 35 22 34 26 33 26 -9z"/>
<path d="M2263 1233 c16 -4 18 -11 12 -41 -3 -21 -8 -48 -11 -62 -4 -22 -3
-23 5 -5 5 11 12 37 16 58 5 32 10 37 33 38 l27 1 -30 8 c-16 4 -39 8 -50 8
-18 0 -18 -1 -2 -5z"/>
<path d="M2761 1213 c0 -16 7 -46 15 -68 13 -39 13 -32 -2 48 -6 38 -6 39 22
35 34 -4 45 -34 17 -46 -17 -6 -15 -10 16 -37 32 -26 33 -26 13 -3 -20 22 -22
29 -11 46 19 31 5 52 -36 52 -32 0 -35 -3 -34 -27z"/>
<path d="M2963 1185 c0 -27 2 -38 4 -22 2 15 2 37 0 50 -2 12 -4 0 -4 -28z"/>
<path d="M2658 1161 c3 -48 1 -59 -13 -65 -26 -10 -45 12 -45 53 0 20 -5 43
-11 51 -8 11 -9 7 -5 -19 3 -18 6 -44 6 -57 0 -30 32 -49 60 -34 17 9 20 21
20 70 0 33 -3 60 -7 60 -5 0 -7 -26 -5 -59z"/>
<path d="M2420 1145 l0 -65 38 2 c36 1 36 1 5 5 -27 4 -33 9 -33 29 0 19 5 24
28 25 l27 1 -25 7 c-19 5 -25 14 -25 34 1 15 -3 27 -7 27 -4 0 -8 -29 -8 -65z"/>
<path d="M2458 1203 c6 -2 18 -2 25 0 6 3 1 5 -13 5 -14 0 -19 -2 -12 -5z"/>
</g>
</svg>
