<?xml version="1.0" encoding="UTF-8"?>
<svg version="1.1" xmlns="http://www.w3.org/2000/svg" width="500" height="500">
<path d="M0 0 C0.99 0.33 1.98 0.66 3 1 C1.47568926 10.89121639 -0.540739 20.65333576 -2.625 30.4375 C-2.97614622 32.09226988 -3.3272191 33.74705532 -3.67822266 35.40185547 C-4.40923607 38.84464489 -5.14242647 42.28696243 -5.87695312 45.72900391 C-6.81725576 50.13710747 -7.75000862 54.54677237 -8.68093872 58.9568634 C-9.4012502 62.36341836 -10.12652617 65.76890215 -10.85321045 69.17410278 C-11.19944704 70.80041034 -11.5439061 72.4270974 -11.88653564 74.0541687 C-12.36447321 76.32111122 -12.84932696 78.5864682 -13.3359375 80.8515625 C-13.74658447 82.78249756 -13.74658447 82.78249756 -14.16552734 84.75244141 C-14.8614267 87.46070741 -15.61218798 89.59420707 -17 92 C-18.32 91.67 -19.64 91.34 -21 91 C-17.65996377 74.09385714 -14.22144644 57.20901243 -10.66032028 40.34810638 C-9.93670228 36.9218238 -9.21698314 33.49481769 -8.50585938 30.06591797 C-7.66795325 26.02608757 -6.81501997 21.98956681 -5.9609375 17.953125 C-5.7077475 16.72305725 -5.4545575 15.4929895 -5.19369507 14.22564697 C-4.94979034 13.08545105 -4.70588562 11.94525513 -4.45458984 10.77050781 C-4.2453891 9.77335754 -4.03618835 8.77620728 -3.82064819 7.74884033 C-2.94272618 4.80815583 -1.68256778 2.55455281 0 0 Z " fill="#E3E3E3" transform="translate(260,207)"/>
<path d="M0 0 C1.32 0.66 2.64 1.32 4 2 C1.80679008 6.11592396 -0.73286692 8.77185003 -4.25 11.8125 C-11.18092364 17.89111126 -11.18092364 17.89111126 -17 25 C-17.32379207 28.11513788 -17.32379207 28.11513788 -15.07226562 30.26831055 C-14.19248047 31.13238525 -13.31269531 31.99645996 -12.40625 32.88671875 C-11.94013306 33.34859085 -11.47401611 33.81046295 -10.99377441 34.28633118 C-9.5027371 35.76056952 -8.00161128 37.22404088 -6.5 38.6875 C-5.48759946 39.68485528 -4.47587189 40.68289417 -3.46484375 41.68164062 C-0.98432371 44.12907564 1.50535089 46.56695887 4 49 C3.67 49.99 3.34 50.98 3 52 C-1.81481681 51.57901749 -4.28859596 49.31152898 -7.5546875 46.01171875 C-8.06049347 45.51211136 -8.56629944 45.01250397 -9.08743286 44.49775696 C-10.1495502 43.44272205 -11.20658896 42.38255269 -12.25878906 41.31762695 C-13.87510852 39.68739055 -15.51406301 38.08264356 -17.15625 36.47851562 C-18.18634812 35.44936824 -19.21504472 34.41881573 -20.2421875 33.38671875 C-20.98104691 32.66774666 -20.98104691 32.66774666 -21.73483276 31.93424988 C-24.95893154 28.61922697 -24.95893154 28.61922697 -25.1315918 26.01586914 C-23.44189775 23.00577124 -21.10763498 20.74152909 -18.65234375 18.359375 C-17.85540855 17.56880707 -17.85540855 17.56880707 -17.04237366 16.76226807 C-15.34767175 15.08432813 -13.64282783 13.41713272 -11.9375 11.75 C-10.78512255 10.61267255 -9.63342148 9.47465934 -8.48242188 8.3359375 C-5.66272816 5.54928008 -2.83389412 2.77221208 0 0 Z " fill="#E4E4E4" transform="translate(224,227)"/>
<path d="M0 0 C3.85978995 1.58708655 6.53587211 4.19703879 9.45703125 7.0859375 C9.96425217 7.58412994 10.47147308 8.08232239 10.99406433 8.59561157 C12.0598617 9.64694612 13.12290806 10.70107597 14.18334961 11.7578125 C15.81246938 13.37496961 17.45931719 14.97253725 19.10742188 16.5703125 C20.14176828 17.59520162 21.17501104 18.62120603 22.20703125 19.6484375 C22.70274124 20.12461517 23.19845123 20.60079285 23.70918274 21.09140015 C26.96678175 24.39322825 26.96678175 24.39322825 27.10913086 26.9934082 C25.50847853 29.88923948 23.35959623 32.12829976 21.046875 34.45703125 C20.54963928 34.96425217 20.05240356 35.47147308 19.5401001 35.99406433 C18.48822925 37.06109392 17.43227725 38.12411367 16.37255859 39.18334961 C14.75354764 40.80893795 13.16004009 42.45699546 11.56640625 44.10742188 C10.5405378 45.14208984 9.51324029 46.17534327 8.484375 47.20703125 C8.01022156 47.70274124 7.53606812 48.19845123 7.04754639 48.70918274 C5.66308594 50.06567383 5.66308594 50.06567383 3 52 C0.15722656 51.79956055 0.15722656 51.79956055 -2 51 C-0.4608199 47.33247995 1.75485452 45.01419427 4.5703125 42.234375 C5.46621094 41.34492188 6.36210937 40.45546875 7.28515625 39.5390625 C8.22230469 38.61867188 9.15945313 37.69828125 10.125 36.75 C11.07988637 35.80515144 12.03431859 34.85984367 12.98828125 33.9140625 C15.32109087 31.60481662 17.65844086 29.30036797 20 27 C18.02148476 23.61848704 16.11819212 20.86809047 13.3125 18.125 C12.61382812 17.44050781 11.91515625 16.75601563 11.1953125 16.05078125 C9.07588642 14.07089034 6.90048902 12.18659956 4.6875 10.3125 C1.76739683 7.81119355 -0.29858278 5.50917302 -2 2 C-1.34 1.34 -0.68 0.68 0 0 Z " fill="#E3E3E3" transform="translate(276,227)"/>
<path d="M0 0 C5.28 0.33 10.56 0.66 16 1 C17 4 17 4 16 7 C15.01 7 14.02 7 13 7 C13.33 9.97 13.66 12.94 14 16 C8.53135543 14.98408579 3.23609987 13.92908943 -2 12 C-1.625 9.5625 -1.625 9.5625 -1 7 C-0.34 6.67 0.32 6.34 1 6 C0.34 5.67 -0.32 5.34 -1 5 C-0.67 3.35 -0.34 1.7 0 0 Z " fill="#ECECEC" transform="translate(101,225)"/>
<path d="M0 0 C7.23285615 0.46663588 7.23285615 0.46663588 9.73046875 2.203125 C11.48437807 4.68558126 11.43344554 6.48348232 11.4375 9.5 C11.45683594 10.4590625 11.47617187 11.418125 11.49609375 12.40625 C11 15 11 15 9.26953125 16.86328125 C6.56252447 18.21911425 5.21052051 18.16640773 2.25 17.6875 C1.45078125 17.56761719 0.6515625 17.44773437 -0.171875 17.32421875 C-0.77515625 17.21722656 -1.3784375 17.11023438 -2 17 C-3.21725138 13.34824587 -2.7372823 11.15773038 -2.125 7.375 C-1.94195312 6.20710938 -1.75890625 5.03921875 -1.5703125 3.8359375 C-1 1 -1 1 0 0 Z M3 11 C3 11.66 3 12.32 3 13 C3.66 13 4.32 13 5 13 C5 12.34 5 11.68 5 11 C4.34 11 3.68 11 3 11 Z " fill="#E2E2E2" transform="translate(270,103)"/>
<path d="M0 0 C4.07239298 0.52684804 6.21598637 1.63049149 9.25 4.375 C9.93578125 4.98085937 10.6215625 5.58671875 11.328125 6.2109375 C13 8 13 8 14 11 C13.34 11.66 12.68 12.32 12 13 C8.98694043 12.61121812 7.60314689 11.73543126 5 10 C6.98 12.97 6.98 12.97 9 16 C8.34 16.99 7.68 17.98 7 19 C2.95838045 17.65515286 0.61321846 15.9494838 -2.3125 12.875 C-3.00988281 12.15054688 -3.70726562 11.42609375 -4.42578125 10.6796875 C-4.94527344 10.12539062 -5.46476563 9.57109375 -6 9 C-5.34 7.68 -4.68 6.36 -4 5 C-2 6 0 7 2 8 C1.2265625 6.8553125 1.2265625 6.8553125 0.4375 5.6875 C-0.036875 4.800625 -0.51125 3.91375 -1 3 C-0.67 2.01 -0.34 1.02 0 0 Z " fill="#E4E4E4" transform="translate(141,151)"/>
<path d="M0 0 C2.34765625 0.203125 2.34765625 0.203125 5 1 C6.43359375 3.109375 6.43359375 3.109375 7.4375 5.75 C7.78683594 6.61109375 8.13617188 7.4721875 8.49609375 8.359375 C9.12085778 11.63333227 8.61399327 13.11541629 7 16 C3.76746204 18.15502531 2.74849077 18.46856135 -1 18 C-4.49619457 15.71402662 -5.68409812 11.81611546 -7 8 C-6.6875 5.0625 -6.6875 5.0625 -6 3 C-4.109375 3.24609375 -4.109375 3.24609375 -2 4 C-0.953125 5.84765625 -0.953125 5.84765625 -0.25 8.0625 C-0.00765625 8.79597656 0.2346875 9.52945313 0.484375 10.28515625 C0.65453125 10.85105469 0.8246875 11.41695312 1 12 C1.66 11.67 2.32 11.34 3 11 C2.505 9.9275 2.01 8.855 1.5 7.75 C0.11346089 4.74583192 0 3.54065105 0 0 Z " fill="#E3E3E3" transform="translate(193,115)"/>
<path d="M0 0 C1.11375 0.598125 2.2275 1.19625 3.375 1.8125 C4.00148438 2.14894531 4.62796875 2.48539063 5.2734375 2.83203125 C7 4 7 4 9 7 C8.67 7.66 8.34 8.32 8 9 C6.35 8.67 4.7 8.34 3 8 C3.66 9.32 4.32 10.64 5 12 C4.01 12.66 3.02 13.32 2 14 C0.68 13.34 -0.64 12.68 -2 12 C-1.484375 12.598125 -0.96875 13.19625 -0.4375 13.8125 C0.036875 14.534375 0.51125 15.25625 1 16 C0.67 16.99 0.34 17.98 0 19 C-3.87132028 18.42647107 -6.08172796 16.51295648 -9 14 C-8.41827275 10.0479482 -6.44842259 7.77904947 -3.9375 4.75 C-3.20402344 3.85796875 -2.47054688 2.9659375 -1.71484375 2.046875 C-1.14894531 1.37140625 -0.58304687 0.6959375 0 0 Z " fill="#E5E5E5" transform="translate(350,134)"/>
<path d="M0 0 C0.99 0.33 1.98 0.66 3 1 C3 1.99 3 2.98 3 4 C2.01 4.66 1.02 5.32 0 6 C1.98 6 3.96 6 6 6 C5.6875 7.9375 5.6875 7.9375 5 10 C4.01 10.33 3.02 10.66 2 11 C2 11.66 2 12.32 2 13 C2.86625 12.505 2.86625 12.505 3.75 12 C6 11 6 11 10 11 C10 12.32 10 13.64 10 15 C5.29483283 19.04863222 5.29483283 19.04863222 1.50390625 18.90625 C-1.82312218 17.7020837 -2.62479507 16.22148469 -4.375 13.1875 C-4.89835938 12.31480469 -5.42171875 11.44210938 -5.9609375 10.54296875 C-7 8 -7 8 -6.84375 5.8203125 C-5.40712092 2.72091828 -2.91893453 1.57622465 0 0 Z " fill="#E6E6E6" transform="translate(175,124)"/>
<path d="M0 0 C1.98 0 3.96 0 6 0 C7.65 4.95 9.3 9.9 11 15 C9.02 15.99 9.02 15.99 7 17 C6.54625 16.505 6.0925 16.01 5.625 15.5 C4.12364481 13.77390663 4.12364481 13.77390663 2 14 C1.54625 14.515625 1.0925 15.03125 0.625 15.5625 C0.08875 16.036875 -0.4475 16.51125 -1 17 C-3.1015625 16.58984375 -3.1015625 16.58984375 -5 16 C-4.54548816 14.26982492 -4.08621143 12.54090123 -3.625 10.8125 C-3.36976563 9.84957031 -3.11453125 8.88664062 -2.8515625 7.89453125 C-2.05233704 5.17789793 -1.0968638 2.60862825 0 0 Z " fill="#E4E4E4" transform="translate(251,103)"/>
<path d="M0 0 C5.61 0 11.22 0 17 0 C16.67 1.65 16.34 3.3 16 5 C15.01 5.33 14.02 5.66 13 6 C13.33 8.31 13.66 10.62 14 13 C13.01 13.66 12.02 14.32 11 15 C7.04 11.7 3.08 8.4 -1 5 C-0.67 3.35 -0.34 1.7 0 0 Z " fill="#DBDBDB" transform="translate(106,208)"/>
<path d="M0 0 C0.81210938 0.34804688 0.81210938 0.34804688 1.640625 0.703125 C1.06478068 3.08876577 0.41834905 5.36995284 -0.359375 7.703125 C0.300625 7.043125 0.960625 6.383125 1.640625 5.703125 C2.630625 5.703125 3.620625 5.703125 4.640625 5.703125 C4.970625 6.693125 5.300625 7.683125 5.640625 8.703125 C-3.58488753 15.22248719 -3.58488753 15.22248719 -9.359375 16.703125 C-10.29002633 14.09730129 -10.50854907 13.06114276 -9.421875 10.453125 C-9.07125 9.875625 -8.720625 9.298125 -8.359375 8.703125 C-10.009375 9.033125 -11.659375 9.363125 -13.359375 9.703125 C-13.359375 8.713125 -13.359375 7.723125 -13.359375 6.703125 C-11.09375 4.84375 -11.09375 4.84375 -8.109375 2.953125 C-6.64757812 2.00179688 -6.64757812 2.00179688 -5.15625 1.03125 C-2.359375 -0.296875 -2.359375 -0.296875 0 0 Z " fill="#F1F1F1" transform="translate(124.359375,308.296875)"/>
<path d="M0 0 C-0.061875 0.763125 -0.12375 1.52625 -0.1875 2.3125 C0.03333514 5.47780368 0.69698534 5.98486217 3 8 C3 8.66 3 9.32 3 10 C4.65 10 6.3 10 8 10 C8.33 10.66 8.66 11.32 9 12 C6.19195732 14.96404505 3.81684226 17.44499019 0 19 C-0.66 18.01 -1.32 17.02 -2 16 C-1.67 15.01 -1.34 14.02 -1 13 C-3.83430453 9.7457985 -5.68607774 8.4793247 -10 8 C-9.6684371 4.9054129 -8.97117406 3.97195314 -6.6875 1.75 C-4 0 -4 0 0 0 Z " fill="#E8E8E8" transform="translate(160,137)"/>
<path d="M0 0 C2 2 2 2 2.08984375 3.875 C1.98826776 5.29185478 1.88410005 6.70852613 1.77734375 8.125 C1.88755859 9.053125 1.88755859 9.053125 2 10 C2.99 10.66 3.98 11.32 5 12 C4.67 13.32 4.34 14.64 4 16 C-0.875 13.125 -0.875 13.125 -2 12 C-2.33 13.65 -2.66 15.3 -3 17 C-3.99 17 -4.98 17 -6 17 C-6.50806447 15.27318563 -7.00610467 13.54342021 -7.5 11.8125 C-7.91765625 10.36810547 -7.91765625 10.36810547 -8.34375 8.89453125 C-8.96677608 6.14654124 -9.12302812 3.80401584 -9 1 C-5.98675805 -0.50662097 -3.31713623 -0.17770373 0 0 Z M-4 3 C-4.33 4.32 -4.66 5.64 -5 7 C-3.68 7 -2.36 7 -1 7 C-1.33 5.68 -1.66 4.36 -2 3 C-2.66 3 -3.32 3 -4 3 Z " fill="#ECECEC" transform="translate(280,374)"/>
<path d="M0 0 C1.258125 0.12375 2.51625 0.2475 3.8125 0.375 C4.87404297 0.47941406 4.87404297 0.47941406 5.95703125 0.5859375 C8 1 8 1 11 3 C10.67 3.99 10.34 4.98 10 6 C9.01 6 8.02 6 7 6 C6.814375 7.2375 6.62875 8.475 6.4375 9.75 C6.28087891 10.79414062 6.28087891 10.79414062 6.12109375 11.859375 C5.99285073 14.12638056 6.34278703 15.83849957 7 18 C5.54119891 17.85892253 4.08296449 17.71197585 2.625 17.5625 C1.40683594 17.44068359 1.40683594 17.44068359 0.1640625 17.31640625 C-2 17 -2 17 -4 16 C-3.6875 14.0625 -3.6875 14.0625 -3 12 C-2.01 11.67 -1.02 11.34 0 11 C1.22969878 7.48809191 1.22969878 7.48809191 2 4 C1.34 4 0.68 4 0 4 C0 2.68 0 1.36 0 0 Z " fill="#E5E5E5" transform="translate(291,107)"/>
<path d="M0 0 C-0.33 0.99 -0.66 1.98 -1 3 C-1.66 3 -2.32 3 -3 3 C-2.67 4.32 -2.34 5.64 -2 7 C-4.38564077 6.42415568 -6.66682784 5.77772405 -9 5 C-8.835 5.598125 -8.67 6.19625 -8.5 6.8125 C-8 9 -8 9 -8 12 C-10.31 11.34 -12.62 10.68 -15 10 C-14.2575 11.1446875 -14.2575 11.1446875 -13.5 12.3125 C-12 15 -12 15 -12 18 C-14.62901288 16.47793991 -16.84365964 15.15634036 -19 13 C-18.66634781 9.44357102 -16.87054267 7.1014746 -14.75 4.3125 C-14.16734375 3.52488281 -13.5846875 2.73726563 -12.984375 1.92578125 C-9.06917638 -1.87381111 -5.0280939 -1.05239175 0 0 Z " fill="#E7E7E7" transform="translate(157,339)"/>
<path d="M0 0 C4.31392226 0.4793247 6.16569547 1.7457985 9 5 C8.25 7.9375 8.25 7.9375 7 11 C4.875 11.875 4.875 11.875 3 12 C3.33 13.98 3.66 15.96 4 18 C3.01 18 2.02 18 1 18 C0 17 0 17 -0.0625 13.9375 C-0.041875 12.968125 -0.02125 11.99875 0 11 C-0.928125 11.99 -0.928125 11.99 -1.875 13 C-4 15 -4 15 -6 15 C-5.61471495 8.83543922 -3.52913975 5.01372252 0 0 Z M1 4 C1 5.32 1 6.64 1 8 C2.32 8 3.64 8 5 8 C4.67 6.68 4.34 5.36 4 4 C3.01 4 2.02 4 1 4 Z " fill="#E6E6E6" transform="translate(178,361)"/>
<path d="M0 0 C1.875 1.3125 1.875 1.3125 3 3 C3 3.99 3 4.98 3 6 C0.61435923 5.42415568 -1.66682784 4.77772405 -4 4 C-6.08333079 5.74934898 -6.08333079 5.74934898 -8 8 C-8 9.32 -8 10.64 -8 12 C-7.01 12.33 -6.02 12.66 -5 13 C-5.33 11.35 -5.66 9.7 -6 8 C-5.01 7.67 -4.02 7.34 -3 7 C-2.01 7.66 -1.02 8.32 0 9 C-0.59927826 12.35595828 -1.84622436 14.37801226 -4 17 C-7.375 16.375 -7.375 16.375 -11 15 C-12.625 12.25 -12.625 12.25 -13 9 C-10.61976099 2.25598946 -7.30098327 -0.93204042 0 0 Z " fill="#E9E9E9" transform="translate(167,352)"/>
<path d="M0 0 C0.66 0 1.32 0 2 0 C1.45276317 3.37462715 0.9451 5.08235 -1 8 C0.65 8 2.3 8 4 8 C3.67 9.32 3.34 10.64 3 12 C1.25364835 12.53293835 -0.49727652 13.05090663 -2.25 13.5625 C-3.22453125 13.85253906 -4.1990625 14.14257812 -5.203125 14.44140625 C-7.96243932 14.99249836 -9.3912824 14.93789609 -12 14 C-12.9765625 7.9453125 -12.9765625 7.9453125 -13 6 C-12.34 5.34 -11.68 4.68 -11 4 C-8.96742948 4.06452605 -6.93486181 4.12915459 -4.90234375 4.1953125 C-2.76346703 4.18585555 -2.76346703 4.18585555 -1.125 2 C-0.75375 1.34 -0.3825 0.68 0 0 Z M-9 7 C-9.33 7.99 -9.66 8.98 -10 10 C-7.525 10.495 -7.525 10.495 -5 11 C-5.33 9.68 -5.66 8.36 -6 7 C-6.99 7 -7.98 7 -9 7 Z " fill="#E9E9E9" transform="translate(392,188)"/>
<path d="M0 0 C3.09942651 2.37402881 4.76098826 3.74518834 5.5 7.625 C5 10 5 10 3.875 11.8125 C1.059158 13.5958666 -0.71940309 13.45027801 -4 13 C-7.4569284 11.20505641 -9.48847452 9.85254247 -11.5 6.5 C-12 4 -12 4 -11.3125 1.75 C-8.36229039 -2.18361282 -4.25284815 -1.02654955 0 0 Z M-6 2 C-6.99 2.495 -6.99 2.495 -8 3 C-7.81171228 5.44480079 -7.81171228 5.44480079 -7 8 C-5.30136062 9.51617907 -5.30136062 9.51617907 -3 10 C-0.31006947 9.69621948 -0.31006947 9.69621948 2 9 C2.04289755 7.06890419 2.04289755 7.06890419 1 5 C-2.37668094 3.10040371 -2.37668094 3.10040371 -6 2 Z " fill="#E6E6E6" transform="translate(385,289)"/>
<path d="M0 0 C0.1875 3.625 0.1875 3.625 0 7 C-4.99296295 9.9445679 -9.33557626 10.63495936 -15 11 C-15 9.68 -15 8.36 -15 7 C-9.555 6.01 -9.555 6.01 -4 5 C-3.67 4.01 -3.34 3.02 -3 2 C-7.62 2.33 -12.24 2.66 -17 3 C-17 1.68 -17 0.36 -17 -1 C-4.54918033 -3.03278689 -4.54918033 -3.03278689 0 0 Z " fill="#EAEAEA" transform="translate(400,212)"/>
<path d="M0 0 C0.99 0 1.98 0 3 0 C3.66 4.29 4.32 8.58 5 13 C5.66 13 6.32 13 7 13 C7 9.04 7 5.08 7 1 C8.32 0.67 9.64 0.34 11 0 C12.07169239 3.21507718 12.02006037 5.15125136 11.75 8.5 C11.68296875 9.4590625 11.6159375 10.418125 11.546875 11.40625 C10.93962407 14.28635441 10.39732858 15.32585605 8 17 C4.9375 16.875 4.9375 16.875 2 16 C-0.25090196 12.62364705 -0.39443591 10.86259337 -0.6875 6.875 C-0.81705078 5.26238281 -0.81705078 5.26238281 -0.94921875 3.6171875 C-0.96597656 2.75351562 -0.98273438 1.88984375 -1 1 C-0.67 0.67 -0.34 0.34 0 0 Z " fill="#EBEBEB" transform="translate(252,377)"/>
<path d="M0 0 C2.71467793 2.18925639 3.02317211 4.07965413 4 7.4375 C4 11 4 11 1.75 13.875 C-1 16 -1 16 -4 17 C-5.20253816 15.09273249 -6.38658949 13.1737988 -7.5625 11.25 C-8.22378906 10.18265625 -8.88507813 9.1153125 -9.56640625 8.015625 C-11 5 -11 5 -10.83984375 2.671875 C-8.84097524 -1.3072679 -3.86225903 -0.55401257 0 0 Z M-6 3 C-6 7.71906188 -4.71245796 9.27037031 -2 13 C-1.01 12.34 -0.02 11.68 1 11 C0.55296014 6.52116304 0.55296014 6.52116304 -2 3 C-3.32 3 -4.64 3 -6 3 Z " fill="#E7E7E7" transform="translate(318,361)"/>
<path d="M0 0 C0.66 0.33 1.32 0.66 2 1 C1.9175 1.76183594 1.835 2.52367187 1.75 3.30859375 C1.710354 6.09025636 1.710354 6.09025636 3.75 7.66015625 C4.4925 8.12292969 5.235 8.58570313 6 9.0625 C8.25 10.47265625 8.25 10.47265625 10 12 C10 13.32 10 14.64 10 16 C5.00088076 15.52389341 2.02167317 13.96837781 -2 11 C-2.66 11.66 -3.32 12.32 -4 13 C-4.99 13 -5.98 13 -7 13 C-6.52431912 8.00535076 -5.04839109 4.97214597 -2 1 C-1.34 0.67 -0.68 0.34 0 0 Z " fill="#E3E3E3" transform="translate(129,166)"/>
<path d="M0 0 C0.66 0.66 1.32 1.32 2 2 C1.01 3.485 1.01 3.485 0 5 C-0.66 5 -1.32 5 -2 5 C-1.01 6.485 -1.01 6.485 0 8 C1.32 7.34 2.64 6.68 4 6 C4.33 7.32 4.66 8.64 5 10 C4.01 10.33 3.02 10.66 2 11 C2.33 11.66 2.66 12.32 3 13 C4.98 12.34 6.96 11.68 9 11 C9 12.32 9 13.64 9 15 C7.25 16.75 7.25 16.75 5 18 C3.68 18 2.36 18 1 18 C-1.140625 15.59375 -1.140625 15.59375 -3.25 12.5 C-4.30960937 10.96859375 -4.30960937 10.96859375 -5.390625 9.40625 C-5.92171875 8.6121875 -6.4528125 7.818125 -7 7 C-5.3327868 3.22929351 -3.66521894 1.9290626 0 0 Z " fill="#EAEAEA" transform="translate(331,348)"/>
<path d="M0 0 C0.99 0.33 1.98 0.66 3 1 C3 2.65 3 4.3 3 6 C5.97 7.65 8.94 9.3 12 11 C12 12.32 12 13.64 12 15 C6.40924092 14.23762376 6.40924092 14.23762376 4.0625 12.875 C0.9173321 11.54068635 -1.72352669 12.36990898 -5 13 C-6 10 -6 10 -4.78515625 7.51953125 C-4.21667969 6.62621094 -3.64820312 5.73289063 -3.0625 4.8125 C-2.49660156 3.91144531 -1.93070312 3.01039063 -1.34765625 2.08203125 C-0.90292969 1.39496094 -0.45820312 0.70789063 0 0 Z " fill="#E4E4E4" transform="translate(117,184)"/>
<path d="M0 0 C0 5.61 0 11.22 0 17 C-0.99 17 -1.98 17 -3 17 C-3.66 15.68 -4.32 14.36 -5 13 C-7.64 13.33 -10.28 13.66 -13 14 C-11.66300057 10.27361049 -10.01835555 7.33857729 -7.625 4.1875 C-6.74714844 3.00220703 -6.74714844 3.00220703 -5.8515625 1.79296875 C-4 0 -4 0 0 0 Z M-4 6 C-4.99 7.485 -4.99 7.485 -6 9 C-5.01 9 -4.02 9 -3 9 C-3.33 8.01 -3.66 7.02 -4 6 Z " fill="#E9E9E9" transform="translate(202,370)"/>
<path d="M0 0 C0.99 0 1.98 0 3 0 C2.42415568 2.38564077 1.77772405 4.66682784 1 7 C2.98 6.34 4.96 5.68 7 5 C8.33332095 7.6666419 7.67102033 9.16680303 7 12 C8.98 10.68 10.96 9.36 13 8 C13 12.68091299 12.00354129 13.62101604 9 17 C3.59510481 15.47987323 0.01507372 11.72614782 -4 8 C-3.25774273 4.66684471 -2.35893889 2.54039572 0 0 Z " fill="#E9E9E9" transform="translate(357,321)"/>
<path d="M0 0 C0.99 0.33 1.98 0.66 3 1 C2.49202991 5.3177458 1.80317221 9.03302114 0 13 C1.65 13.99 3.3 14.98 5 16 C4.67 16.99 4.34 17.98 4 19 C0.0507432 18.44894091 -3.34920174 17.61064629 -7 16 C-6.39642962 12.18653263 -5.26488908 9.17716834 -3.5 5.75 C-2.83484375 4.44289063 -2.83484375 4.44289063 -2.15625 3.109375 C-1 1 -1 1 0 0 Z " fill="#E5E5E5" transform="translate(313,113)"/>
<path d="M0 0 C1.65 0.33 3.3 0.66 5 1 C4.525625 2.051875 4.05125 3.10375 3.5625 4.1875 C2.30676259 7.10175851 1.47765619 9.84746914 1 13 C1.99 13.66 2.98 14.32 4 15 C3.67 16.32 3.34 17.64 3 19 C-0.91211733 17.84414715 -3.8745041 16.64465038 -7 14 C-6.34097701 10.42959697 -4.83770842 7.82267745 -2.9375 4.75 C-2.38964844 3.85796875 -1.84179688 2.9659375 -1.27734375 2.046875 C-0.64505859 1.03367187 -0.64505859 1.03367187 0 0 Z " fill="#E5E5E5" transform="translate(331,123)"/>
<path d="M0 0 C0.66 0.33 1.32 0.66 2 1 C2 2.98 2 4.96 2 7 C3.32 7 4.64 7 6 7 C6 5.35 6 3.7 6 2 C7.32 2.33 8.64 2.66 10 3 C10 4.32 10 5.64 10 7 C10.99 7 11.98 7 13 7 C13 5.02 13 3.04 13 1 C13.99 1 14.98 1 16 1 C16 3.97 16 6.94 16 10 C13.35448944 10.19386492 10.70882217 10.38038267 8.0625 10.5625 C7.30775391 10.61857422 6.55300781 10.67464844 5.77539062 10.73242188 C3.85254042 10.86176157 1.92610452 10.93516912 0 11 C-1 10 -1 10 -1.1328125 7.96875 C-1.13023437 7.1540625 -1.12765625 6.339375 -1.125 5.5 C-1.12757813 4.6853125 -1.13015625 3.870625 -1.1328125 3.03125 C-1 1 -1 1 0 0 Z " fill="#EAEAEA" transform="translate(386,230)"/>
<path d="M0 0 C1.23556641 0.01740234 1.23556641 0.01740234 2.49609375 0.03515625 C3.32238281 0.04417969 4.14867187 0.05320312 5 0.0625 C5.63808594 0.07410156 6.27617187 0.08570313 6.93359375 0.09765625 C6.93359375 1.08765625 6.93359375 2.07765625 6.93359375 3.09765625 C4.62359375 3.42765625 2.31359375 3.75765625 -0.06640625 4.09765625 C1.3255529 6.88157455 3.08935154 7.07664622 5.93359375 8.09765625 C5.60359375 8.75765625 5.27359375 9.41765625 4.93359375 10.09765625 C4.27359375 10.24203125 3.61359375 10.38640625 2.93359375 10.53515625 C2.27359375 10.72078125 1.61359375 10.90640625 0.93359375 11.09765625 C0.60359375 12.08765625 0.27359375 13.07765625 -0.06640625 14.09765625 C1.91359375 14.09765625 3.89359375 14.09765625 5.93359375 14.09765625 C5.93359375 15.08765625 5.93359375 16.07765625 5.93359375 17.09765625 C-0.21875 17.1953125 -0.21875 17.1953125 -2.06640625 17.09765625 C-3.82200567 15.34205683 -3.19862544 13.06183183 -3.203125 10.7265625 C-3.19925781 10.02402344 -3.19539062 9.32148438 -3.19140625 8.59765625 C-3.19527344 7.89511719 -3.19914063 7.19257813 -3.203125 6.46875 C-3.19095169 0.15080112 -3.19095169 0.15080112 0 0 Z " fill="#E9E9E9" transform="translate(236.06640625,376.90234375)"/>
<path d="M0 0 C2.31 0 4.62 0 7 0 C7.25523437 0.84884766 7.25523437 0.84884766 7.515625 1.71484375 C7.75796875 2.44832031 8.0003125 3.18179688 8.25 3.9375 C8.59804688 5.03384766 8.59804688 5.03384766 8.953125 6.15234375 C9.8507553 8.20570556 9.8507553 8.20570556 12.109375 8.75390625 C13.04523438 8.87572266 13.04523438 8.87572266 14 9 C14 9.99 14 10.98 14 12 C12.08302063 11.85833643 10.16642277 11.71150416 8.25 11.5625 C7.18265625 11.48128906 6.1153125 11.40007812 5.015625 11.31640625 C0.03428959 10.79375318 0.03428959 10.79375318 -2 10 C-3.39195915 5.82412255 -1.82323219 3.86525224 0 0 Z M2 3 C1.67 4.32 1.34 5.64 1 7 C2.65 7 4.3 7 6 7 C5.67 5.68 5.34 4.36 5 3 C4.01 3 3.02 3 2 3 Z " fill="#EEEEEE" transform="translate(386,250)"/>
<path d="M0 0 C1.32 0 2.64 0 4 0 C4.66 3.96 5.32 7.92 6 12 C7.98 11.67 9.96 11.34 12 11 C12.33 12.32 12.66 13.64 13 15 C9.37 15.66 5.74 16.32 2 17 C0.32329318 11.74631862 -0.84550243 6.53814367 -1 1 C-0.67 0.67 -0.34 0.34 0 0 Z " fill="#E2E2E2" transform="translate(228,105)"/>
<path d="M0 0 C2.33944736 0.28730055 4.6739143 0.61936779 7 1 C7.10957031 1.56589844 7.21914063 2.13179688 7.33203125 2.71484375 C7.49058594 3.44832031 7.64914062 4.18179687 7.8125 4.9375 C7.96332031 5.66839844 8.11414063 6.39929688 8.26953125 7.15234375 C8.51058594 7.76207031 8.75164062 8.37179687 9 9 C9.99 9.33 10.98 9.66 12 10 C12 10.99 12 11.98 12 13 C6.79044057 12.45162532 1.93163261 11.81162014 -3 10 C-4 7 -4 7 -2.625 3.875 C-1 1 -1 1 0 0 Z M2 3 C1.34 4.32 0.68 5.64 0 7 C2.475 7.495 2.475 7.495 5 8 C4.67 6.35 4.34 4.7 4 3 C3.34 3 2.68 3 2 3 Z " fill="#E5E5E5" transform="translate(383,269)"/>
<path d="M0 0 C4.22108986 3.46732382 6.31041634 7.89530044 8 13 C8 14.32 8 15.64 8 17 C3.85701333 16.40165275 0.81805623 14.99335715 -2.8125 12.9375 C-3.78832031 12.38964844 -4.76414062 11.84179688 -5.76953125 11.27734375 C-6.50558594 10.85582031 -7.24164063 10.43429687 -8 10 C-7.67 9.01 -7.34 8.02 -7 7 C-4.03 7.99 -1.06 8.98 2 10 C1.484375 9.0925 0.96875 8.185 0.4375 7.25 C-1 4 -1 4 -0.6875 1.625 C-0.460625 1.08875 -0.23375 0.5525 0 0 Z " fill="#E6E6E6" transform="translate(346,334)"/>
<path d="M0 0 C3.0916909 2.52956528 3.90931332 5.22454612 5 9 C3.96875 8.95875 2.9375 8.9175 1.875 8.875 C-1.86829627 8.99575149 -4.53734547 9.64872018 -8 11 C-8 12.32 -8 13.64 -8 15 C-8.99 15 -9.98 15 -11 15 C-12.5625 12.1875 -12.5625 12.1875 -14 9 C-13.67 8.01 -13.34 7.02 -13 6 C-12.29875 6.226875 -11.5975 6.45375 -10.875 6.6875 C-7.03071353 7.10535722 -5.21500935 6.07189491 -2 4 C-0.59533047 1.94906855 -0.59533047 1.94906855 0 0 Z " fill="#EAEAEA" transform="translate(115,291)"/>
<path d="M0 0 C4.28904235 1.5885342 6.32345526 4.43127368 9 8 C9 8.66 9 9.32 9 10 C8.195625 9.690625 7.39125 9.38125 6.5625 9.0625 C1.02041737 8.96527048 -2.00212772 12.43745159 -6 16 C-6.66 15.67 -7.32 15.34 -8 15 C-6.80647906 11.77749345 -5.70189252 10.77343832 -2.875 8.625 C0.33732123 6.27010153 0.33732123 6.27010153 0.375 2.6875 C0.25125 1.800625 0.1275 0.91375 0 0 Z " fill="#E4E4E4" transform="translate(133,323)"/>
<path d="M0 0 C1.64933228 0.06399526 3.29615131 0.20073916 4.9375 0.375 C6.28134766 0.51035156 6.28134766 0.51035156 7.65234375 0.6484375 C10 1 10 1 12 2 C12 2.66 12 3.32 12 4 C11.21238281 4.21398437 10.42476562 4.42796875 9.61328125 4.6484375 C6.7767034 5.76877637 6.7767034 5.76877637 5.85546875 8.6015625 C5.63503906 9.59929687 5.41460937 10.59703125 5.1875 11.625 C4.95417969 12.62789063 4.72085938 13.63078125 4.48046875 14.6640625 C4.32191406 15.43492187 4.16335937 16.20578125 4 17 C3.34 17 2.68 17 2 17 C1.87175573 10.45954198 1.87175573 10.45954198 2.75 7.3125 C2.8325 6.549375 2.915 5.78625 3 5 C1.16641665 2.66545339 1.16641665 2.66545339 -1 1 C-0.67 0.67 -0.34 0.34 0 0 Z " fill="#E6E6E6" transform="translate(213,374)"/>
<path d="M0 0 C2.31 0 4.62 0 7 0 C7 0.99 7 1.98 7 3 C8.94009522 4.70532323 8.94009522 4.70532323 11 6 C10.67 7.65 10.34 9.3 10 11 C6.00717059 11 4.84668408 9.52191924 1.8125 7 C0.91144531 6.2575 0.01039062 5.515 -0.91796875 4.75 C-1.60503906 4.1725 -2.29210937 3.595 -3 3 C0 3 0 3 2 4 C1.34 2.68 0.68 1.36 0 0 Z M6 4 C7 6 7 6 7 6 Z " fill="#E6E6E6" transform="translate(109,211)"/>
<path d="M0 0 C0.69867188 0.3609375 1.39734375 0.721875 2.1171875 1.09375 C3.02726562 1.5578125 3.93734375 2.021875 4.875 2.5 C5.77992188 2.9640625 6.68484375 3.428125 7.6171875 3.90625 C9.86596859 5.13905589 9.86596859 5.13905589 12 5 C13.37310707 3.70766393 14.71034824 2.37562854 16 1 C16.6875 2.6875 16.6875 2.6875 17 5 C15.5625 7.75 15.5625 7.75 14 10 C9.93774452 9.42176904 7.15237654 8.10882263 3.6875 5.9375 C2.80449219 5.38964844 1.92148437 4.84179688 1.01171875 4.27734375 C0.34785156 3.85582031 -0.31601562 3.43429687 -1 3 C-0.67 2.01 -0.34 1.02 0 0 Z " fill="#E9E9E9" transform="translate(365,310)"/>
<path d="M0 0 C0.81210938 0.34804688 0.81210938 0.34804688 1.640625 0.703125 C1.16860014 4.95134874 -1.32593018 6.90302209 -4.359375 9.703125 C-4.359375 6.703125 -4.359375 6.703125 -3.359375 4.703125 C-3.82988281 5.0640625 -4.30039063 5.425 -4.78515625 5.796875 C-5.40777344 6.2609375 -6.03039062 6.725 -6.671875 7.203125 C-7.28675781 7.6671875 -7.90164062 8.13125 -8.53515625 8.609375 C-10.359375 9.703125 -10.359375 9.703125 -13.359375 9.703125 C-13.359375 8.713125 -13.359375 7.723125 -13.359375 6.703125 C-11.09375 4.84375 -11.09375 4.84375 -8.109375 2.953125 C-6.64757812 2.00179688 -6.64757812 2.00179688 -5.15625 1.03125 C-2.359375 -0.296875 -2.359375 -0.296875 0 0 Z " fill="#E7E7E7" transform="translate(124.359375,308.296875)"/>
<path d="M0 0 C0.99 0 1.98 0 3 0 C2.85775413 2.52108103 2.71129879 5.04180403 2.5625 7.5625 C2.50352539 8.61920898 2.50352539 8.61920898 2.44335938 9.69726562 C2.17481721 14.1798541 1.69383803 18.56293497 1 23 C0.01 22.67 -0.98 22.34 -2 22 C-1.85811015 19.45805839 -1.71160845 16.91652007 -1.5625 14.375 C-1.52318359 13.66214844 -1.48386719 12.94929688 -1.44335938 12.21484375 C-1.19690319 8.08196318 -0.76529947 4.07730976 0 0 Z " fill="#EEEEEE" transform="translate(296,365)"/>
<path d="M0 0 C7.3028169 0.59859155 7.3028169 0.59859155 10.0625 2.1875 C11.49291397 4.95296701 10.71692918 7.06710791 10 10 C9.01 10 8.02 10 7 10 C7 9.34 7 8.68 7 8 C5.68 8 4.36 8 3 8 C3.33 6.35 3.66 4.7 4 3 C2.68 2.01 1.36 1.02 0 0 Z " fill="#EAEAEA" transform="translate(270,103)"/>
<path d="M0 0 C1.9375 1.5625 1.9375 1.5625 3 3 C-0.98196457 4.05404945 -3.98195309 3.84098656 -8 3 C-8.33 4.32 -8.66 5.64 -9 7 C-9.99 6.67 -10.98 6.34 -12 6 C-11.1875 3.0625 -11.1875 3.0625 -10 0 C-6.22941703 -1.25686099 -3.86146303 -0.82745636 0 0 Z " fill="#ECECEC" transform="translate(385,289)"/>
<path d="M0 0 C-0.33 0.99 -0.66 1.98 -1 3 C-1.66 3 -2.32 3 -3 3 C-2.67 4.32 -2.34 5.64 -2 7 C-4.96175123 6.38722388 -6.38058783 5.74627478 -9 4 C-9.66666667 2.66666667 -10.33333333 1.33333333 -11 0 C-7.01803543 -1.05404945 -4.01804691 -0.84098656 0 0 Z " fill="#EFEFEF" transform="translate(157,339)"/>
<path d="M0 0 C-0.33 1.65 -0.66 3.3 -1 5 C-2.65 4.67 -4.3 4.34 -6 4 C-6 4.66 -6 5.32 -6 6 C-5.34 6 -4.68 6 -4 6 C-3.34 7.65 -2.68 9.3 -2 11 C-2.763125 10.690625 -3.52625 10.38125 -4.3125 10.0625 C-6.18789677 9.32106407 -8.08684652 8.63771783 -10 8 C-9.6684371 4.9054129 -8.97117406 3.97195314 -6.6875 1.75 C-4 0 -4 0 0 0 Z " fill="#EAEAEA" transform="translate(160,137)"/>
<path d="M0 0 C0.99 0 1.98 0 3 0 C3.33 0.99 3.66 1.98 4 3 C2.58833114 3.98635837 1.17043816 4.96381255 -0.25 5.9375 C-1.43335937 6.75541016 -1.43335937 6.75541016 -2.640625 7.58984375 C-4.82636993 8.89622441 -6.5153801 9.54980511 -9 10 C-9 9.01 -9 8.02 -9 7 C-8.071875 6.5875 -7.14375 6.175 -6.1875 5.75 C-3.0502234 4.02757363 -2.02814629 2.80077345 0 0 Z " fill="#E9E9E9" transform="translate(126,314)"/>
<path d="M0 0 C0 0.99 0 1.98 0 3 C-2.31 3.33 -4.62 3.66 -7 4 C-7 4.33 -7 4.66 -7 5 C-9.31 5 -11.62 5 -14 5 C-14 3.68 -14 2.36 -14 1 C-12.22932584 0.83165067 -10.45845388 0.66538091 -8.6875 0.5 C-7.70136719 0.4071875 -6.71523437 0.314375 -5.69921875 0.21875 C-3 0 -3 0 0 0 Z " fill="#DCDCDC" transform="translate(113,232)"/>
<path d="M0 0 C2.31 0 4.62 0 7 0 C7 0.99 7 1.98 7 3 C6.01 3.495 6.01 3.495 5 4 C5 3.34 5 2.68 5 2 C3.68 2 2.36 2 1 2 C0.67 3.98 0.34 5.96 0 8 C0.99 8 1.98 8 3 8 C3 8.66 3 9.32 3 10 C1.35 10 -0.3 10 -2 10 C-3.39195915 5.82412255 -1.82323219 3.86525224 0 0 Z " fill="#E3E3E3" transform="translate(386,250)"/>
<path d="M0 0 C0.66 0.66 1.32 1.32 2 2 C1.625 4.625 1.625 4.625 1 7 C0.773125 6.360625 0.54625 5.72125 0.3125 5.0625 C-0.85250896 2.72806339 -0.85250896 2.72806339 -3.625 2.25 C-4.40875 2.1675 -5.1925 2.085 -6 2 C-6 3.98 -6 5.96 -6 8 C-6.33 7.34 -6.66 6.68 -7 6 C-7.66 6 -8.32 6 -9 6 C-9 4.35 -9 2.7 -9 1 C-5.98675805 -0.50662097 -3.31713623 -0.17770373 0 0 Z " fill="#E3E3E3" transform="translate(280,374)"/>
<path d="M0 0 C1.4540625 0.0309375 1.4540625 0.0309375 2.9375 0.0625 C2.9375 0.7225 2.9375 1.3825 2.9375 2.0625 C3.9275 2.3925 4.9175 2.7225 5.9375 3.0625 C5.6075 4.0525 5.2775 5.0425 4.9375 6.0625 C5.5975 6.3925 6.2575 6.7225 6.9375 7.0625 C5.6175 7.0625 4.2975 7.0625 2.9375 7.0625 C2.6075 5.7425 2.2775 4.4225 1.9375 3.0625 C0.2875 3.0625 -1.3625 3.0625 -3.0625 3.0625 C-3.3925 4.0525 -3.7225 5.0425 -4.0625 6.0625 C-4.105221 4.39638095 -4.10313832 2.72867115 -4.0625 1.0625 C-3.0625 0.0625 -3.0625 0.0625 0 0 Z " fill="#DFDFDF" transform="translate(384.0625,191.9375)"/>
<path d="M0 0 C-0.99 0.495 -0.99 0.495 -2 1 C-0.68 0.67 0.64 0.34 2 0 C2 0.66 2 1.32 2 2 C0.68 2.33 -0.64 2.66 -2 3 C-1.67 4.98 -1.34 6.96 -1 9 C-1.99 9 -2.98 9 -4 9 C-5 8 -5 8 -5.0625 4.9375 C-5.041875 3.968125 -5.02125 2.99875 -5 2 C-5.66 2 -6.32 2 -7 2 C-7 1.34 -7 0.68 -7 0 C-3.86650268 -1.04449911 -3.01031744 -0.93423645 0 0 Z " fill="#EFEFEF" transform="translate(183,370)"/>
<path d="M0 0 C1.48117801 0.28127421 2.95993249 0.57533732 4.4375 0.875 C5.67306641 1.11863281 5.67306641 1.11863281 6.93359375 1.3671875 C7.61550781 1.57601562 8.29742187 1.78484375 9 2 C9.33 2.66 9.66 3.32 10 4 C7.08291076 5.98362069 5.87619096 5.9876191 2.25 5.625 C1.1775 5.41875 0.105 5.2125 -1 5 C-0.67 3.35 -0.34 1.7 0 0 Z " fill="#E0E0E0" transform="translate(101,225)"/>
<path d="M0 0 C-0.33 0.66 -0.66 1.32 -1 2 C-3.5625 2.625 -3.5625 2.625 -6 3 C-5.67 4.98 -5.34 6.96 -5 9 C-5.99 9.495 -5.99 9.495 -7 10 C-10.05059524 5.60714286 -10.05059524 5.60714286 -9.8125 2.75 C-7.95808315 -1.24412859 -3.8193993 -0.07072962 0 0 Z " fill="#E3E3E3" transform="translate(317,361)"/>
<path d="M0 0 C0.33 0.66 0.66 1.32 1 2 C1.66 2 2.32 2 3 2 C4.32 4.31 5.64 6.62 7 9 C6.34 9.66 5.68 10.32 5 11 C1.39345961 8.59563974 1.14547068 7.05320393 0 3 C-0.66 3 -1.32 3 -2 3 C-2 2.34 -2 1.68 -2 1 C-1.34 0.67 -0.68 0.34 0 0 Z " fill="#DADADA" transform="translate(156,140)"/>
<path d="M0 0 C0.33 0 0.66 0 1 0 C1 1.65 1 3.3 1 5 C2.65 5 4.3 5 6 5 C6 5.99 6 6.98 6 8 C-1.75 7.125 -1.75 7.125 -4 6 C-4 5.34 -4 4.68 -4 4 C-3.01 3.67 -2.02 3.34 -1 3 C-0.67 2.01 -0.34 1.02 0 0 Z " fill="#E3E3E3" transform="translate(389,274)"/>
<path d="M0 0 C0.99 0 1.98 0 3 0 C2.88529863 1.75070517 2.75780972 3.50057536 2.625 5.25 C2.55539062 6.22453125 2.48578125 7.1990625 2.4140625 8.203125 C2 11 2 11 0 15 C0 10.05 0 5.1 0 0 Z " fill="#E4E4E4" transform="translate(296,365)"/>
<path d="M0 0 C0.33 0.66 0.66 1.32 1 2 C2.98 1.67 4.96 1.34 7 1 C7.33 2.32 7.66 3.64 8 5 C6.02 5.33 4.04 5.66 2 6 C2 5.34 2 4.68 2 4 C1.34 4 0.68 4 0 4 C0 2.68 0 1.36 0 0 Z " fill="#E9E9E9" transform="translate(233,115)"/>
<path d="M0 0 C0.99 0 1.98 0 3 0 C3 3.96 3 7.92 3 12 C2.34 12 1.68 12 1 12 C0.67 8.04 0.34 4.08 0 0 Z " fill="#E6E6E6" transform="translate(251,378)"/>
<path d="M0 0 C-1.36983503 3.16115776 -1.9890638 3.9927092 -5 6 C-6.32 6 -7.64 6 -9 6 C-8.67 5.34 -8.34 4.68 -8 4 C-7.67 3.01 -7.34 2.02 -7 1 C-2.55696203 -1.27848101 -2.55696203 -1.27848101 0 0 Z " fill="#EEEEEE" transform="translate(341,360)"/>
<path d="M0 0 C2.475 0.99 2.475 0.99 5 2 C4.42655063 4.86724686 4.1385485 5.8614515 2 8 C2 7.34 2 6.68 2 6 C1.34 6 0.68 6 0 6 C-0.38218767 4.34385343 -0.71395102 2.67542976 -1 1 C-0.67 0.67 -0.34 0.34 0 0 Z " fill="#ECECEC" transform="translate(162,359)"/>
<path d="M0 0 C4.29 0 8.58 0 13 0 C12.67 1.65 12.34 3.3 12 5 C10.68 5.33 9.36 5.66 8 6 C8.33 4.68 8.66 3.36 9 2 C6.03 1.67 3.06 1.34 0 1 C0 0.67 0 0.34 0 0 Z " fill="#E7E7E7" transform="translate(110,208)"/>
<path d="M0 0 C1.5 1.25 1.5 1.25 3 3 C3 4.32 3 5.64 3 7 C1.02 7 -0.96 7 -3 7 C-2.01 4.69 -1.02 2.38 0 0 Z " fill="#E6E6E6" transform="translate(115,291)"/>
<path d="M0 0 C0.66 1.32 1.32 2.64 2 4 C1.01 5.485 1.01 5.485 0 7 C-1.32 6.67 -2.64 6.34 -4 6 C-3.6875 4.125 -3.6875 4.125 -3 2 C-2.01 1.34 -1.02 0.68 0 0 Z " fill="#DCDCDC" transform="translate(345,142)"/>
<path d="M0 0 C0.66 0 1.32 0 2 0 C2.99 1.98 3.98 3.96 5 6 C1.23312136 6 0.08809695 5.76462683 -3 4 C-1.625 2 -1.625 2 0 0 Z " fill="#EFEFEF" transform="translate(145,344)"/>
<path d="M0 0 C2.62187494 1.04874998 3.79371361 1.64931313 5.25 4.125 C5.4975 4.74375 5.745 5.3625 6 6 C5.01 6 4.02 6 3 6 C0.84971696 6.94978897 0.84971696 6.94978897 -1 8 C-0.835 7.236875 -0.67 6.47375 -0.5 5.6875 C0.09145396 2.96403764 0.09145396 2.96403764 0 0 Z " fill="#EEEEEE" transform="translate(133,323)"/>
<path d="M0 0 C0.99 0.33 1.98 0.66 3 1 C3 3.33333333 3 5.66666667 3 8 C2.01 8.495 2.01 8.495 1 9 C0.01 8.01 -0.98 7.02 -2 6 C-0.68 6.33 0.64 6.66 2 7 C2 6.34 2 5.68 2 5 C1.01 4.67 0.02 4.34 -1 4 C-0.67 2.68 -0.34 1.36 0 0 Z " fill="#F6F6F6" transform="translate(351,139)"/>
<path d="M0 0 C0.66 0.33 1.32 0.66 2 1 C2 2.98 2 4.96 2 7 C1.34 7 0.68 7 0 7 C-0.33 6.34 -0.66 5.68 -1 5 C-1.99 5.33 -2.98 5.66 -4 6 C-2.25 1.125 -2.25 1.125 0 0 Z " fill="#E9E9E9" transform="translate(129,166)"/>
<path d="M0 0 C1.37562854 1.28965176 2.70766393 2.62689293 4 4 C4 4.66 4 5.32 4 6 C3.34 6 2.68 6 2 6 C1.67 6.66 1.34 7.32 1 8 C-0.42944945 5.64561267 -1.08661261 4.51967567 -0.625 1.75 C-0.41875 1.1725 -0.2125 0.595 0 0 Z " fill="#EDEDED" transform="translate(346,334)"/>
<path d="M0 0 C1.32 0.33 2.64 0.66 4 1 C4 1.99 4 2.98 4 4 C4.66 4.66 5.32 5.32 6 6 C4.35 6.66 2.7 7.32 1 8 C0.67 5.36 0.34 2.72 0 0 Z " fill="#F2F2F2" transform="translate(379,194)"/>
<path d="M0 0 C0.99 0.33 1.98 0.66 3 1 C2.8125 2.875 2.8125 2.875 2 5 C0.35448038 5.71727778 -1.31422289 6.38325228 -3 7 C-3.66 7.99 -4.32 8.98 -5 10 C-4.67 8.35 -4.34 6.7 -4 5 C-3.01 4.67 -2.02 4.34 -1 4 C-0.26676204 1.98491642 -0.26676204 1.98491642 0 0 Z " fill="#DEDEDE" transform="translate(184,365)"/>
<path d="M0 0 C2.625 0.9375 2.625 0.9375 5 2 C4.34 3.65 3.68 5.3 3 7 C2.34 6.01 1.68 5.02 1 4 C0.01 3.67 -0.98 3.34 -2 3 C-2 2.34 -2 1.68 -2 1 C-1.34 0.67 -0.68 0.34 0 0 Z " fill="#EFEFEF" transform="translate(181,362)"/>
<path d="M0 0 C0.33 -0.66 0.66 -1.32 1 -2 C1.33 -0.68 1.66 0.64 2 2 C-0.97 2 -3.94 2 -7 2 C-7 1.34 -7 0.68 -7 0 C-7.66 -0.33 -8.32 -0.66 -9 -1 C-5.79937313 -2.60031344 -3.27728194 -1.03173691 0 0 Z " fill="#F0F0F0" transform="translate(118,298)"/>
<path d="M0 0 C2.31 0.33 4.62 0.66 7 1 C7 1.66 7 2.32 7 3 C5.02 3.66 3.04 4.32 1 5 C0.67 3.35 0.34 1.7 0 0 Z " fill="#EDEDED" transform="translate(218,375)"/>
<path d="M0 0 C0.99 0.66 1.98 1.32 3 2 C2.67 2.66 2.34 3.32 2 4 C1.01 4 0.02 4 -1 4 C-3.00309329 4.31421071 -5.00371336 4.6451046 -7 5 C-6.67 4.01 -6.34 3.02 -6 2 C-3.125 0.6875 -3.125 0.6875 0 0 Z " fill="#F1F1F1" transform="translate(317,361)"/>
<path d="M0 0 C0.99 0 1.98 0 3 0 C2.43628586 3.26954202 1.50037734 4.82575883 -1 7 C-1.625 4.625 -1.625 4.625 -2 2 C-1.34 1.34 -0.68 0.68 0 0 Z " fill="#F0F0F0" transform="translate(357,321)"/>
<path d="M0 0 C2.33944736 0.28730055 4.6739143 0.61936779 7 1 C7 1.99 7 2.98 7 4 C2.44615385 4.36923077 2.44615385 4.36923077 0.1875 2.5 C-0.4003125 1.7575 -0.4003125 1.7575 -1 1 C-0.67 0.67 -0.34 0.34 0 0 Z " fill="#E5E5E5" transform="translate(393,258)"/>
<path d="M0 0 C2.31 0 4.62 0 7 0 C7 1.32 7 2.64 7 4 C3.73045798 3.43628586 2.17424117 2.50037734 0 0 Z " fill="#E0E0E0" transform="translate(108,237)"/>
<path d="M0 0 C1.98 0 3.96 0 6 0 C6.33 1.32 6.66 2.64 7 4 C3.23312136 4 2.08809695 3.76462683 -1 2 C-0.67 1.34 -0.34 0.68 0 0 Z " fill="#F1F1F1" transform="translate(344,344)"/>
<path d="M0 0 C0.66 0.33 1.32 0.66 2 1 C1.6875 2.9375 1.6875 2.9375 1 5 C0.01 5.33 -0.98 5.66 -2 6 C-2 2 -2 2 0 0 Z " fill="#EBEBEB" transform="translate(128,333)"/>
<path d="M0 0 C2.76223278 2.76223278 2.57856291 5.20706617 3 9 C2.34 9 1.68 9 1 9 C-1.35953094 6.64046906 -1.49141413 5.22104383 -2 2 C-1.34 2 -0.68 2 0 2 C0 1.34 0 0.68 0 0 Z " fill="#F2F2F2" transform="translate(389,270)"/>
<path d="M0 0 C1.4540625 0.0309375 1.4540625 0.0309375 2.9375 0.0625 C2.6075 1.0525 2.2775 2.0425 1.9375 3.0625 C0.2875 3.0625 -1.3625 3.0625 -3.0625 3.0625 C-3.3925 4.0525 -3.7225 5.0425 -4.0625 6.0625 C-4.105221 4.39638095 -4.10313832 2.72867115 -4.0625 1.0625 C-3.0625 0.0625 -3.0625 0.0625 0 0 Z " fill="#E5E5E5" transform="translate(384.0625,191.9375)"/>
<path d="M0 0 C0.66 0.66 1.32 1.32 2 2 C3.31747324 2.69748583 4.64914193 3.36959957 6 4 C5.01 4 4.02 4 3 4 C3 4.66 3 5.32 3 6 C1.35 5.67 -0.3 5.34 -2 5 C-1.34 4.34 -0.68 3.68 0 3 C0 2.01 0 1.02 0 0 Z " fill="#EFEFEF" transform="translate(382,274)"/>
<path d="M0 0 C0.33 0.66 0.66 1.32 1 2 C0.67 2.66 0.34 3.32 0 4 C0.66 4 1.32 4 2 4 C2 4.66 2 5.32 2 6 C0.35 5.67 -1.3 5.34 -3 5 C-1.125 1.125 -1.125 1.125 0 0 Z " fill="#EAEAEA" transform="translate(277,273)"/>
<path d="M0 0 C2.31 0 4.62 0 7 0 C6.34 1.32 5.68 2.64 5 4 C3.31503702 3.03114628 1.64821244 2.03013277 0 1 C0 0.67 0 0.34 0 0 Z " fill="#F2F2F2" transform="translate(109,211)"/>
<path d="M0 0 C0.33 0.66 0.66 1.32 1 2 C1.99 2.33 2.98 2.66 4 3 C3.01 3.99 2.02 4.98 1 6 C0.01 5.01 -0.98 4.02 -2 3 C-1.34 2.01 -0.68 1.02 0 0 Z " fill="#ECECEC" transform="translate(160,150)"/>
</svg>
